# xmcd
#
# Track frame offsets: 
#        150
#        20585
#        36398
#        55503
#        69328
#        89255
#        107870
#        133223
#        156610
#        175648
#        203923
#        222683
#
# Disc length: 3428 seconds
#
# Revision: 3
# Processed by: cddbd v1.5.2PL0 Copyright (c) Steve Scherf et al.
# Submitted via: ExactAudioCopy v1.0b3
#
DISCID=b20d620c
DTITLE=Steve Earle - Ain't Ever Satisfied (The Steve Earle Collection)
DTITLE=Various Artist - Disc 2
DYEAR=1996
DGENRE=Country
TTITLE0=Copperhead Road
TTITLE1=Snake Oil
TTITLE2=Even When I'm Blue
TTITLE3=Devil's Right Hand
TTITLE4=Nothing But A Child
TTITLE5=Johnny Come Lately
TTITLE6=Dead Flowers (Live)
TTITLE7=The Other Kind
TTITLE8=When The People Find Out
TTITLE9=Billy Austin
TTITLE10=She's About A Mover (Live)
TTITLE11=West Nashville Boogie (Live)
EXTD=
EXTT0=
EXTT1=
EXTT2=
EXTT3=
EXTT4=
EXTT5=
EXTT6=
EXTT7=
EXTT8=
EXTT9=
EXTT10=
EXTT11=
PLAYORDER=
